<svg width="57" height="45" viewBox="0 0 57 45" fill="none" xmlns="http://www.w3.org/2000/svg">
<path d="M2.364 0H0V44.888H2.364V0Z" fill="#FF4521"/>
<path d="M56.4612 0H54.0972V44.888H56.4612V0Z" fill="#FF4521"/>
<path d="M8.94397 6.77402V38.793L16.581 30.793L24.219 22.788L16.581 14.788L8.94397 6.78302V6.77402ZM6.66699 0.74704L10.434 4.69403L18.071 12.699L25.709 20.699L27.702 22.788L25.709 24.874L18.071 32.879L10.434 40.879L6.66699 44.827V0.738037V0.74704Z" fill="#FF4521"/>
<path d="M48.3292 6.76498L40.5362 14.775L32.7442 22.784L40.5362 30.794L48.3292 38.804V6.76498ZM50.6062 0.802979V44.766L46.8562 40.912L39.0642 32.902L31.2712 24.892L29.2202 22.784L31.2712 20.677L39.0642 12.667L46.8562 4.65799L50.6062 0.802979Z" fill="#FF4521"/>
</svg>
