<svg width="63" height="54" viewBox="0 0 63 54" fill="none" xmlns="http://www.w3.org/2000/svg">
<path d="M62.2352 12.5056C62.2162 9.14262 62.1962 5.77958 62.1962 2.41858C62.1964 2.23645 62.1407 2.05871 62.0365 1.9093C61.9324 1.75989 61.7849 1.64609 61.6139 1.58325C61.443 1.52042 61.2569 1.51159 61.0807 1.55798C60.9046 1.60438 60.747 1.70375 60.6292 1.84265C58.6292 4.19865 54.6212 5.6626 50.1772 5.6626C44.8602 5.6626 40.2182 3.55262 38.8892 0.531616C38.8198 0.373534 38.7059 0.239058 38.5613 0.144653C38.4168 0.0502491 38.2478 0 38.0752 0C37.9025 0 37.7336 0.0502491 37.5891 0.144653C37.4445 0.239058 37.3306 0.373534 37.2612 0.531616C35.9322 3.55262 31.2912 5.6626 25.9742 5.6626C21.5282 5.6626 17.5232 4.19865 15.5222 1.84265C15.4044 1.70375 15.2468 1.60438 15.0707 1.55798C14.8945 1.51159 14.7084 1.52042 14.5375 1.58325C14.3665 1.64609 14.219 1.75989 14.1149 1.9093C14.0107 2.05871 13.955 2.23645 13.9552 2.41858C13.9552 4.53958 13.9402 11.1076 13.9292 13.2296C14.5292 13.2026 15.1422 11.5016 15.7092 11.6866C15.7172 10.1636 15.7282 5.97161 15.7312 4.44861C18.7489 6.49204 22.3311 7.53834 25.9742 7.44055C31.1882 7.44055 35.8822 5.51761 38.0742 2.62061C40.2672 5.52061 44.9612 7.44055 50.1742 7.44055C53.8173 7.53801 57.3994 6.49173 60.4172 4.44861C60.4225 7.13661 60.4349 9.82562 60.4542 12.5156C60.4742 15.8766 60.4942 19.2367 60.4942 22.5927C60.4942 31.9367 55.4152 40.7666 46.7942 47.1366C47.2315 47.55 47.5882 48.041 47.8462 48.5846C56.9312 41.8846 62.2742 32.5197 62.2742 22.5927C62.2752 19.2327 62.2502 15.8696 62.2352 12.5056Z" fill="#FF4521"/>
<path d="M8.3632 48.4706C8.13624 48.476 7.91641 48.391 7.75198 48.2345C7.58756 48.0779 7.49197 47.8626 7.48621 47.6356V30.0226C7.49697 29.7972 7.59407 29.5846 7.75736 29.429C7.92065 29.2733 8.1376 29.1865 8.3632 29.1865C8.58881 29.1865 8.80577 29.2733 8.96906 29.429C9.13235 29.5846 9.22944 29.7972 9.2402 30.0226V47.6376C9.23392 47.8642 9.13811 48.0791 8.97374 48.2352C8.80937 48.3914 8.58984 48.476 8.3632 48.4706V48.4706Z" fill="#FF4521"/>
<path d="M41.5622 29.9576H4.83617C4.60857 29.95 4.39286 29.8542 4.23457 29.6904C4.07628 29.5267 3.98779 29.3078 3.98779 29.0801C3.98779 28.8523 4.07628 28.6336 4.23457 28.4698C4.39286 28.3061 4.60857 28.2103 4.83617 28.2026H41.5622C41.7898 28.2103 42.0055 28.3061 42.1638 28.4698C42.3221 28.6336 42.4105 28.8523 42.4105 29.0801C42.4105 29.3078 42.3221 29.5267 42.1638 29.6904C42.0055 29.8542 41.7898 29.95 41.5622 29.9576V29.9576Z" fill="#FF4521"/>
<path d="M41.1652 25.3876H5.23422C5.0383 25.3879 4.84789 25.3226 4.69339 25.2021C4.53889 25.0817 4.42919 24.9129 4.38178 24.7228C4.33437 24.5327 4.35198 24.3322 4.43181 24.1533C4.51164 23.9744 4.64908 23.8273 4.82222 23.7356L22.7872 14.1816C22.9141 14.1141 23.0555 14.0789 23.1992 14.0789C23.3429 14.0789 23.4844 14.1141 23.6112 14.1816L41.5772 23.7356C41.7504 23.8273 41.8878 23.9744 41.9676 24.1533C42.0475 24.3322 42.0651 24.5327 42.0177 24.7228C41.9703 24.9129 41.8605 25.0817 41.706 25.2021C41.5515 25.3226 41.3612 25.3879 41.1652 25.3876V25.3876ZM8.75022 23.6326H37.6502L23.2022 15.9496L8.75022 23.6326Z" fill="#FF4521"/>
<path d="M40.5872 49.1755H5.81219C5.57946 49.1755 5.35627 49.0831 5.1917 48.9186C5.02714 48.754 4.93469 48.5308 4.93469 48.2981C4.93469 48.0654 5.02714 47.8422 5.1917 47.6776C5.35627 47.513 5.57946 47.4207 5.81219 47.4207H40.5872C40.8199 47.4207 41.0431 47.513 41.2077 47.6776C41.3722 47.8422 41.4647 48.0654 41.4647 48.2981C41.4647 48.5308 41.3722 48.754 41.2077 48.9186C41.0431 49.0831 40.8199 49.1755 40.5872 49.1755Z" fill="#FF4521"/>
<path d="M44.8252 53.7375H1.5742C1.3466 53.7299 1.13089 53.6341 0.972603 53.4703C0.814313 53.3066 0.72583 53.0878 0.72583 52.8601C0.72583 52.6324 0.814313 52.4136 0.972603 52.2499C1.13089 52.0862 1.3466 51.9902 1.5742 51.9825H44.8252C45.0528 51.9902 45.2685 52.0862 45.4268 52.2499C45.5851 52.4136 45.6736 52.6324 45.6736 52.8601C45.6736 53.0878 45.5851 53.3066 45.4268 53.4703C45.2685 53.6341 45.0528 53.7299 44.8252 53.7375V53.7375Z" fill="#FF4521"/>
<path d="M12.8332 48.4706C12.6062 48.476 12.3864 48.391 12.222 48.2345C12.0575 48.0779 11.9619 47.8626 11.9562 47.6356V30.0226C11.9669 29.7972 12.064 29.5846 12.2273 29.429C12.3906 29.2733 12.6076 29.1865 12.8332 29.1865C13.0588 29.1865 13.2757 29.2733 13.439 29.429C13.6023 29.5846 13.6994 29.7972 13.7102 30.0226V47.6376C13.7039 47.8642 13.6081 48.0791 13.4437 48.2352C13.2793 48.3914 13.0598 48.476 12.8332 48.4706V48.4706Z" fill="#FF4521"/>
<path d="M32.8962 48.4706C32.6692 48.476 32.4494 48.391 32.2849 48.2345C32.1205 48.0779 32.0249 47.8626 32.0192 47.6356V30.0226C32.0299 29.7972 32.127 29.5846 32.2903 29.429C32.4536 29.2733 32.6706 29.1865 32.8962 29.1865C33.1218 29.1865 33.3387 29.2733 33.502 29.429C33.6653 29.5846 33.7624 29.7972 33.7732 30.0226V47.6376C33.7669 47.8642 33.6711 48.0791 33.5067 48.2352C33.3423 48.3914 33.1228 48.476 32.8962 48.4706V48.4706Z" fill="#FF4521"/>
<path d="M37.3663 48.4706C37.1393 48.476 36.9195 48.391 36.755 48.2345C36.5906 48.0779 36.495 47.8626 36.4893 47.6356V30.0226C36.5 29.7972 36.5971 29.5846 36.7604 29.429C36.9237 29.2733 37.1406 29.1865 37.3663 29.1865C37.5919 29.1865 37.8088 29.2733 37.9721 29.429C38.1354 29.5846 38.2325 29.7972 38.2433 30.0226V47.6376C38.237 47.8642 38.1412 48.0791 37.9768 48.2352C37.8124 48.3914 37.5929 48.476 37.3663 48.4706V48.4706Z" fill="#FF4521"/>
<path d="M22.7672 35.6946C22.5799 35.6946 22.4004 35.6202 22.268 35.4878C22.1356 35.3554 22.0612 35.1759 22.0612 34.9886V33.2886C22.0576 33.1936 22.0732 33.0988 22.1071 33.01C22.141 32.9212 22.1925 32.8401 22.2584 32.7716C22.3244 32.7031 22.4035 32.6487 22.491 32.6115C22.5785 32.5742 22.6726 32.5551 22.7677 32.5551C22.8628 32.5551 22.9569 32.5742 23.0444 32.6115C23.1319 32.6487 23.2109 32.7031 23.2769 32.7716C23.3429 32.8401 23.3943 32.9212 23.4282 33.01C23.4621 33.0988 23.4777 33.1936 23.4742 33.2886V34.9886C23.4739 35.176 23.3993 35.3555 23.2667 35.4879C23.1342 35.6203 22.9545 35.6946 22.7672 35.6946V35.6946Z" fill="#FF4521"/>
<path d="M22.7672 44.7926C22.58 44.7923 22.4006 44.7179 22.2682 44.5856C22.1359 44.4532 22.0614 44.2737 22.0612 44.0865V42.3866C22.0576 42.2916 22.0732 42.1969 22.1071 42.108C22.141 42.0192 22.1925 41.9381 22.2584 41.8696C22.3244 41.8011 22.4035 41.7466 22.491 41.7094C22.5785 41.6721 22.6726 41.653 22.7677 41.653C22.8628 41.653 22.9569 41.6721 23.0444 41.7094C23.1319 41.7466 23.2109 41.8011 23.2769 41.8696C23.3429 41.9381 23.3943 42.0192 23.4282 42.108C23.4621 42.1969 23.4777 42.2916 23.4742 42.3866V44.0865C23.4739 44.2739 23.3993 44.4534 23.2667 44.5858C23.1342 44.7182 22.9545 44.7926 22.7672 44.7926V44.7926Z" fill="#FF4521"/>
<path d="M23.1052 42.8265C22.89 42.8264 22.675 42.814 22.4612 42.7895C21.7124 42.6772 20.9774 42.4868 20.2682 42.2215L20.1292 42.1745C20.0412 42.1453 19.9598 42.0989 19.8898 42.0382C19.8197 41.9775 19.7622 41.9036 19.7207 41.8207C19.6792 41.7377 19.6545 41.6474 19.6478 41.5549C19.6412 41.4624 19.6529 41.3696 19.6822 41.2816C19.7115 41.1936 19.7578 41.1122 19.8185 41.0421C19.8792 40.972 19.9532 40.9147 20.0361 40.8732C20.119 40.8316 20.2093 40.8069 20.3018 40.8003C20.3943 40.7937 20.4872 40.8053 20.5752 40.8346L20.7162 40.8806C21.3307 41.1132 21.9673 41.2825 22.6162 41.3856C22.9922 41.4827 23.387 41.4798 23.7615 41.3772C24.136 41.2746 24.4772 41.0757 24.7512 40.8005C24.8205 40.708 24.8616 40.5975 24.8696 40.4822C24.8776 40.3669 24.8521 40.2518 24.7962 40.1506C24.5519 39.8659 24.2397 39.6475 23.8885 39.5155C23.5373 39.3835 23.1585 39.3423 22.7872 39.3956H22.7702C22.138 39.4666 21.4984 39.3645 20.9196 39.1003C20.3409 38.8361 19.8448 38.4197 19.4842 37.8956C19.3101 37.5691 19.2299 37.2006 19.2527 36.8313C19.2755 36.4619 19.4003 36.1062 19.6132 35.8036C20.0316 35.3027 20.5782 34.9249 21.1947 34.7107C21.8112 34.4965 22.4744 34.454 23.1132 34.5876C23.8685 34.7007 24.6099 34.8927 25.3252 35.1606L25.4522 35.2026C25.5431 35.2295 25.6277 35.2744 25.7009 35.3347C25.7741 35.395 25.8344 35.4694 25.8782 35.5535C25.9221 35.6375 25.9486 35.7296 25.9562 35.8241C25.9637 35.9186 25.9522 36.0136 25.9223 36.1036C25.8924 36.1936 25.8447 36.2766 25.782 36.3478C25.7193 36.4189 25.643 36.4768 25.5575 36.5178C25.472 36.5589 25.3792 36.5822 25.2845 36.5867C25.1898 36.5911 25.0951 36.5765 25.0062 36.5436L24.8772 36.5006C24.2554 36.2662 23.6114 36.0953 22.9552 35.9906C22.5717 35.8924 22.1692 35.8969 21.7879 36.0034C21.4067 36.1099 21.0602 36.3149 20.7832 36.5976C20.7151 36.6877 20.6742 36.7953 20.6653 36.9078C20.6565 37.0204 20.68 37.133 20.7332 37.2325C20.9272 37.5955 21.5632 37.9825 22.7712 37.9825H22.8102C23.436 37.9154 24.0683 38.02 24.6392 38.2851C25.21 38.5503 25.6978 38.966 26.0502 39.4875C26.2264 39.8161 26.308 40.1871 26.2859 40.5593C26.2639 40.9315 26.139 41.2902 25.9252 41.5956C25.5911 42.0151 25.1595 42.3465 24.668 42.561C24.1765 42.7756 23.64 42.8667 23.1052 42.8265V42.8265Z" fill="#FF4521"/>
</svg>
