<svg width="160" height="47" viewBox="0 0 160 47" fill="none" xmlns="http://www.w3.org/2000/svg">
<path d="M21.0524 10.1905L21.0642 10.1994L28.8212 17.9933L36.5354 10.2422C37.0604 9.71215 37.5144 9.11616 37.8858 8.46917C38.3396 7.67206 38.6403 6.79709 38.7723 5.88941C34.5132 2.08865 29.0023 -0.00821016 23.2939 2.41601e-05C21.7313 -0.0016605 20.1724 0.154249 18.6411 0.465424V4.42963C18.6206 5.74815 18.9343 7.05038 19.5527 8.21504C19.9533 8.94335 20.4586 9.60891 21.0524 10.1905Z" fill="#A4E22D"/>
<path d="M42.3417 9.88306C42.0302 10.554 41.6562 11.1941 41.2247 11.795C40.7979 12.3989 40.3209 12.9659 39.7989 13.4897H39.7915L32.0435 21.2083L39.8373 28.9785C40.3423 29.4874 40.8034 30.0381 41.2158 30.6245C42.2224 32.0375 42.9147 33.6496 43.246 35.3526C45.4463 31.7186 46.6065 27.5501 46.6 23.3019C46.6049 18.4958 45.1169 13.8069 42.3417 9.88306Z" fill="#FF4521"/>
<path d="M17.7642 13.4972C17.1468 12.881 16.5911 12.206 16.1049 11.4819C14.7233 9.3981 14.0024 6.94594 14.0364 4.44593V1.92383C9.86493 3.73036 6.31313 6.71804 3.81898 10.5186C1.32482 14.3192 -0.00268135 18.7665 4.06622e-06 23.3124C-0.001347 27.8576 1.32675 32.304 3.82078 36.1038C6.31481 39.9037 9.86584 42.8911 14.0364 44.698V38.0492C14.0008 35.5334 14.7343 33.0667 16.1389 30.9792C16.615 30.2721 17.1593 29.6134 17.7642 29.0127L25.5182 21.2202L17.7642 13.4972Z" fill="#FF4521"/>
<path d="M36.5339 32.1502L28.8315 24.4302L21.0509 32.1842C20.456 32.7756 19.9525 33.4523 19.5572 34.1922C18.9403 35.3834 18.6272 36.7086 18.6455 38.05V46.1497C20.1772 46.4585 21.7358 46.6134 23.2982 46.6122C27.0948 46.6181 30.8347 45.6911 34.1891 43.9128C35.8858 43.0166 37.4642 41.9122 38.8876 40.6253L38.9496 38.0603C38.9582 36.6253 38.5957 35.2125 37.8976 33.9587C37.5205 33.3012 37.0624 32.6936 36.5339 32.1502Z" fill="#FF4521"/>
<path d="M97.2496 23.1548L101.885 18.5892C102.628 17.8623 103.215 16.9915 103.611 16.03C104.006 15.0685 104.202 14.0364 104.185 12.9968V8.96021H99.5678V12.9968C99.5803 13.43 99.502 13.861 99.3379 14.262C99.1737 14.6631 98.9275 15.0253 98.6148 15.3254L94.0094 19.9057L89.2813 15.154L89.2665 15.1363C88.9518 14.8446 88.7028 14.4892 88.5362 14.0938C88.3696 13.6984 88.2892 13.2721 88.3002 12.8431V8.95874H83.683V12.8505C83.6663 13.8912 83.8624 14.9243 84.2592 15.8865C84.6561 16.8487 85.2454 17.7196 85.9909 18.4459L90.719 23.1577L85.9687 27.97C85.2204 28.6919 84.628 29.5596 84.2283 30.5194C83.8285 31.4793 83.6299 32.5109 83.6446 33.5506V37.6625H88.2618V33.5506C88.2518 33.1099 88.3323 32.6718 88.4983 32.2635C88.6642 31.8551 88.9121 31.4851 89.2267 31.1762L93.9976 26.3876L98.6163 31.024C98.9315 31.3355 99.18 31.7081 99.3464 32.1189C99.5128 32.5296 99.5937 32.9701 99.5841 33.4132V37.664H104.201V33.4117C104.219 32.3725 104.026 31.3405 103.634 30.3779C103.242 29.4153 102.66 28.5419 101.921 27.8104L97.2496 23.1548Z" fill="#0F1315"/>
<path d="M108.828 8.95874V13.539H116.792V37.6669H121.409V13.539H129.444V8.95874H108.828Z" fill="#0F1315"/>
<path d="M159.996 8.95874H154.043L147.027 23.1429L140.036 8.95874H134.059V37.6625H138.64V16.4202L145.383 29.6292H148.699L155.429 16.4202V37.6566H160L159.996 8.95874Z" fill="#0F1315"/>
<path d="M68.9985 13.5243H79.0618V8.95874H69.2274C68.1295 8.95893 67.0424 9.17541 66.0281 9.5958C65.0138 10.0162 64.0923 10.6323 63.3161 11.4088C62.5399 12.1854 61.9244 13.1073 61.5046 14.1218C61.0847 15.1363 60.8688 16.2236 60.8691 17.3215V37.6625H65.4878V25.4479H76.6048V20.8675H65.4878V17.026C65.5465 16.115 65.9355 15.2568 66.5818 14.6121C67.2281 13.9674 68.0874 13.5806 68.9985 13.5243Z" fill="#0F1315"/>
</svg>
