<svg width="50" height="40" viewBox="0 0 50 40" fill="none" xmlns="http://www.w3.org/2000/svg">
<path d="M23.8201 34.946V12.2271C23.8026 12.0827 23.8155 11.9362 23.8579 11.7971C23.9004 11.6581 23.9714 11.5294 24.0665 11.4194C24.1616 11.3094 24.2787 11.2205 24.4102 11.1584C24.5416 11.0964 24.6847 11.0624 24.8301 11.0588C25.4761 11.0588 25.7871 11.5821 25.7871 12.2271V34.95C25.7871 35.595 25.4761 36.1189 24.8301 36.1189C24.6843 36.1153 24.5408 36.0812 24.4091 36.0188C24.2773 35.9564 24.16 35.8671 24.0648 35.7566C23.9697 35.6461 23.8987 35.5168 23.8566 35.3772C23.8144 35.2376 23.802 35.0908 23.8201 34.946Z" fill="#FF4521"/>
<path d="M40.7889 9.72412H28.4659C28.1643 9.71164 27.8791 9.58285 27.67 9.36499C27.461 9.14713 27.3442 8.85686 27.3442 8.55493C27.3442 8.253 27.461 7.96298 27.67 7.74512C27.8791 7.52725 28.1643 7.39847 28.4659 7.38599H40.793C41.0946 7.39847 41.3797 7.52725 41.5887 7.74512C41.7978 7.96298 41.9146 8.253 41.9146 8.55493C41.9146 8.85686 41.7978 9.14713 41.5887 9.36499C41.3797 9.58285 41.0946 9.71164 40.793 9.72412H40.7889Z" fill="#FF4521"/>
<path d="M21.0741 9.72412H8.81018C8.51196 9.70667 8.2317 9.57571 8.02673 9.3584C7.82177 9.14108 7.70752 8.85366 7.70752 8.55493C7.70752 8.25621 7.82177 7.96878 8.02673 7.75146C8.2317 7.53415 8.51196 7.40344 8.81018 7.38599H21.0741C21.3723 7.40344 21.6526 7.53415 21.8575 7.75146C22.0625 7.96878 22.1768 8.25621 22.1768 8.55493C22.1768 8.85366 22.0625 9.14108 21.8575 9.3584C21.6526 9.57571 21.3723 9.70667 21.0741 9.72412Z" fill="#FF4521"/>
<path d="M24.8027 12.4502C24.0314 12.4502 23.2775 12.2215 22.6361 11.793C21.9947 11.3644 21.4949 10.7553 21.1997 10.0427C20.9045 9.33008 20.8273 8.54582 20.9778 7.7893C21.1283 7.03277 21.4996 6.3379 22.045 5.79247C22.5905 5.24705 23.2855 4.87557 24.042 4.72509C24.7985 4.57461 25.5826 4.65183 26.2953 4.94701C27.0079 5.24219 27.617 5.74194 28.0455 6.38329C28.4741 7.02464 28.7027 7.77869 28.7027 8.55004C28.7027 9.58438 28.2919 10.5765 27.5605 11.3079C26.8291 12.0392 25.8371 12.4502 24.8027 12.4502ZM24.8027 6.4121C24.3789 6.4121 23.9646 6.53771 23.6122 6.77318C23.2598 7.00866 22.9851 7.34352 22.8229 7.7351C22.6607 8.12668 22.6182 8.55743 22.7009 8.97313C22.7836 9.38884 22.9878 9.77084 23.2875 10.0705C23.5872 10.3703 23.9691 10.5743 24.3848 10.657C24.8005 10.7397 25.2313 10.6971 25.6229 10.5349C26.0145 10.3727 26.3491 10.098 26.5846 9.7456C26.8201 9.39318 26.9458 8.97901 26.9458 8.55517C26.9453 7.98697 26.7193 7.44205 26.3175 7.04027C25.9157 6.6385 25.3709 6.41263 24.8027 6.4121Z" fill="#FF4521"/>
<path d="M8.90698 29.9719C6.54551 29.9693 4.28151 29.0302 2.61169 27.3604C0.941881 25.6905 0.0026468 23.4264 0 21.0649C0 20.8879 0.00599609 20.7009 0.0209961 20.4819C0.0400589 20.1854 0.171292 19.9073 0.388062 19.7041C0.604831 19.5009 0.890863 19.3878 1.18799 19.3879H16.6279C16.9251 19.3878 17.2111 19.5009 17.4279 19.7041C17.6446 19.9073 17.7759 20.1854 17.7949 20.4819C17.8089 20.7009 17.8159 20.8879 17.8159 21.0649C17.813 23.4267 16.8734 25.6908 15.2032 27.3606C13.5331 29.0304 11.2687 29.9695 8.90698 29.9719ZM2.07703 21.3721C2.41003 24.6861 5.50798 28.1719 8.90698 28.1719C12.306 28.1719 15.407 24.6831 15.735 21.3721H2.07703Z" fill="#FF4521"/>
<path d="M38.0988 39.9099H11.5118C11.3675 39.9275 11.221 39.9149 11.0819 39.8726C10.9428 39.8302 10.8141 39.7591 10.704 39.6641C10.5939 39.569 10.5049 39.4522 10.4427 39.3208C10.3806 39.1894 10.3464 39.0462 10.3428 38.9009C10.3428 38.2549 10.8668 37.9429 11.5118 37.9429H38.0988C38.7448 37.9429 39.2668 38.2549 39.2668 38.9009C39.2633 39.0462 39.2293 39.1891 39.1672 39.3206C39.1051 39.452 39.0163 39.569 38.9062 39.6641C38.7962 39.7591 38.6676 39.8302 38.5286 39.8726C38.3895 39.9149 38.243 39.9275 38.0988 39.9099Z" fill="#FF4521"/>
<path d="M23.8201 5.02002V1.16797C23.8026 1.02362 23.8155 0.877348 23.8579 0.738281C23.9004 0.599214 23.9714 0.47058 24.0665 0.360596C24.1616 0.250611 24.2787 0.161687 24.4102 0.0996094C24.5416 0.0375314 24.6847 0.00354722 24.8301 0C25.4761 0 25.7871 0.522969 25.7871 1.16797V5.01709C25.7871 5.66309 25.4761 6.18604 24.8301 6.18604C24.685 6.18231 24.5421 6.14843 24.4109 6.08643C24.2796 6.02442 24.1628 5.93565 24.0677 5.82593C23.9727 5.7162 23.9015 5.58774 23.8589 5.44897C23.8162 5.31021 23.8031 5.16419 23.8201 5.02002Z" fill="#FF4521"/>
<path d="M30.6461 36.9299H18.9581C18.8137 36.9474 18.6672 36.9345 18.5281 36.8921C18.389 36.8496 18.2603 36.7787 18.1503 36.6836C18.0402 36.5885 17.9512 36.4713 17.889 36.3398C17.8268 36.2084 17.7927 36.0653 17.7891 35.9199C17.7891 35.2739 18.3131 34.9631 18.9581 34.9631H30.644C31.29 34.9631 31.8131 35.2739 31.8131 35.9199C31.8095 36.0652 31.7756 36.2082 31.7136 36.3396C31.6516 36.471 31.5629 36.588 31.453 36.6831C31.3431 36.7782 31.2145 36.8493 31.0756 36.8918C30.9366 36.9344 30.7904 36.9473 30.6461 36.9299Z" fill="#FF4521"/>
<path d="M9.484 9.28308L4.83299 20.0031C4.79161 20.1424 4.72155 20.2715 4.62731 20.3822C4.53306 20.4929 4.41673 20.5828 4.28575 20.6459C4.15478 20.709 4.01211 20.744 3.86681 20.7487C3.7215 20.7533 3.57677 20.7275 3.442 20.673C3.31309 20.6114 3.19871 20.5231 3.10655 20.4139C3.0144 20.3048 2.94664 20.1771 2.90758 20.0397C2.86852 19.9022 2.85905 19.7582 2.87999 19.6168C2.90094 19.4755 2.9518 19.3403 3.02904 19.2201L7.68102 8.4989C7.93802 7.9069 8.43203 7.54999 9.02403 7.80799C9.15604 7.86923 9.27373 7.95731 9.36962 8.06678C9.4655 8.17624 9.53747 8.30456 9.5808 8.44348C9.62412 8.58241 9.63786 8.72885 9.6212 8.87342C9.60454 9.01798 9.55778 9.15766 9.484 9.28308Z" fill="#FF4521"/>
<path d="M12.3587 20.0429L8.06769 9.17302C7.99831 9.04525 7.95644 8.90437 7.94477 8.75945C7.93309 8.61452 7.95191 8.4687 7.99994 8.33147C8.04798 8.19424 8.12419 8.06858 8.2237 7.96257C8.3232 7.85657 8.44378 7.7726 8.5777 7.71599C9.1777 7.47799 9.65967 7.85085 9.89667 8.45085L14.1877 19.321C14.4247 19.921 14.3267 20.521 13.7267 20.759C13.5902 20.8091 13.4448 20.8302 13.2996 20.8207C13.1545 20.8113 13.013 20.7715 12.8841 20.704C12.7552 20.6366 12.6419 20.543 12.5515 20.4291C12.461 20.3153 12.3953 20.1837 12.3587 20.0429Z" fill="#FF4521"/>
<path d="M40.9442 29.9719C38.5827 29.9693 36.3187 29.0302 34.6489 27.3604C32.9791 25.6905 32.0398 23.4264 32.0371 21.0649C32.0371 20.8879 32.0431 20.7009 32.0581 20.4819C32.0772 20.1854 32.2085 19.9073 32.4253 19.7041C32.6421 19.5009 32.928 19.3878 33.2251 19.3879H48.6652C48.9622 19.3879 49.2481 19.5009 49.4647 19.7041C49.6813 19.9073 49.8124 20.1855 49.8312 20.4819C49.8462 20.7009 49.8522 20.8879 49.8522 21.0649C49.8493 23.4265 48.9097 25.6906 47.2397 27.3604C45.5698 29.0301 43.3058 29.9693 40.9442 29.9719ZM34.1132 21.3721C34.4462 24.6861 37.5442 28.1719 40.9442 28.1719C44.3442 28.1719 47.4442 24.6831 47.7722 21.3721H34.1132Z" fill="#FF4521"/>
<path d="M41.5211 9.28308L36.8701 20.0031C36.8288 20.1424 36.7587 20.2715 36.6644 20.3822C36.5702 20.4929 36.4539 20.5828 36.3229 20.6459C36.1919 20.709 36.0491 20.744 35.9038 20.7487C35.7585 20.7533 35.6139 20.7275 35.4791 20.673C35.3502 20.6114 35.2358 20.5231 35.1437 20.4139C35.0515 20.3048 34.9837 20.1771 34.9446 20.0397C34.9055 19.9022 34.8962 19.7582 34.9171 19.6168C34.9381 19.4755 34.9888 19.3403 35.0661 19.2201L39.718 8.4989C39.975 7.9069 40.4691 7.54999 41.0611 7.80799C41.1931 7.86923 41.3109 7.95731 41.4068 8.06678C41.5026 8.17624 41.5745 8.30456 41.6178 8.44348C41.6611 8.58241 41.6749 8.72885 41.6582 8.87342C41.6416 9.01798 41.5949 9.15766 41.5211 9.28308Z" fill="#FF4521"/>
<path d="M44.3958 20.0429L40.1048 9.17302C40.0354 9.04525 39.9935 8.90437 39.9819 8.75945C39.9702 8.61452 39.989 8.4687 40.0371 8.33147C40.0851 8.19424 40.1613 8.06858 40.2608 7.96257C40.3603 7.85657 40.4809 7.7726 40.6148 7.71599C41.2148 7.47799 41.6968 7.85085 41.9338 8.45085L46.2238 19.321C46.4608 19.921 46.3637 20.521 45.7637 20.759C45.6272 20.8091 45.4817 20.8302 45.3366 20.8207C45.1915 20.8113 45.0499 20.7715 44.9211 20.704C44.7922 20.6366 44.6789 20.543 44.5884 20.4291C44.498 20.3153 44.4324 20.1837 44.3958 20.0429Z" fill="#FF4521"/>
</svg>
