<svg width="65" height="47" viewBox="0 0 65 47" fill="none" xmlns="http://www.w3.org/2000/svg">
<path d="M60.4973 18.7746H47.2969C47.184 18.7746 47.0722 18.7524 46.968 18.7092C46.8637 18.666 46.769 18.6027 46.6892 18.5229C46.6094 18.4431 46.5461 18.3484 46.5029 18.2442C46.4597 18.1399 46.4375 18.0281 46.4375 17.9153C46.4375 17.8024 46.4597 17.6908 46.5029 17.5865C46.5461 17.4822 46.6094 17.3874 46.6892 17.3076C46.769 17.2278 46.8637 17.1645 46.968 17.1213C47.0722 17.0781 47.184 17.0559 47.2969 17.0559H60.4973C60.7252 17.0559 60.9438 17.1465 61.1049 17.3076C61.2661 17.4688 61.3567 17.6874 61.3567 17.9153C61.3567 18.1432 61.2661 18.3618 61.1049 18.5229C60.9438 18.6841 60.7252 18.7746 60.4973 18.7746Z" fill="#FF4521"/>
<path d="M60.4973 41.6387H47.2969C47.069 41.6387 46.8504 41.5481 46.6892 41.3869C46.5281 41.2258 46.4375 41.0072 46.4375 40.7793C46.4375 40.5514 46.5281 40.3328 46.6892 40.1717C46.8504 40.0105 47.069 39.9199 47.2969 39.9199H60.4973C60.7252 39.9199 60.9438 40.0105 61.1049 40.1717C61.2661 40.3328 61.3567 40.5514 61.3567 40.7793C61.3567 41.0072 61.2661 41.2258 61.1049 41.3869C60.9438 41.5481 60.7252 41.6387 60.4973 41.6387Z" fill="#FF4521"/>
<path d="M61.4312 46.1886H46.3634C45.5422 46.1877 44.755 45.8611 44.1744 45.2805C43.5937 44.6998 43.267 43.9125 43.2661 43.0914V15.8574C43.267 15.0362 43.5937 14.2489 44.1744 13.6683C44.755 13.0876 45.5422 12.7609 46.3634 12.76H61.432C62.2533 12.7609 63.0406 13.0875 63.6214 13.6681C64.2022 14.2488 64.529 15.0361 64.5302 15.8574V43.0887C64.5295 43.9105 64.2028 44.6985 63.6218 45.2796C63.0408 45.8608 62.253 46.1877 61.4312 46.1886ZM46.3634 14.4779C45.9977 14.4784 45.647 14.6238 45.3884 14.8824C45.1298 15.1411 44.9844 15.4917 44.9839 15.8574V43.0887C44.9844 43.4544 45.1298 43.805 45.3884 44.0636C45.647 44.3222 45.9977 44.4677 46.3634 44.4682H61.4312C61.7971 44.4677 62.1479 44.3222 62.4067 44.0634C62.6654 43.8046 62.8111 43.4538 62.8115 43.0878V15.8547C62.8113 15.4889 62.6659 15.1382 62.4072 14.8796C62.1485 14.6209 61.7978 14.4755 61.432 14.4752L46.3634 14.4779Z" fill="#FF4521"/>
<path d="M44.1253 36.6159H7.0347C5.16969 36.6136 3.38165 35.8718 2.06289 34.5531C0.744128 33.2343 0.00231333 31.4463 0 29.5812V3.78451C0.00300932 2.77932 0.404567 1.81631 1.11666 1.10684C1.82874 0.397373 2.79319 -0.000698099 3.79838 9.1906e-07H52.4538C53.4571 0.00115777 54.419 0.400255 55.1285 1.10972C55.838 1.81919 56.237 2.78117 56.2382 3.78451V10.9118C56.2382 11.1399 56.1476 11.3585 55.9864 11.5198C55.8251 11.681 55.6064 11.7716 55.3784 11.7716C55.1504 11.7716 54.9317 11.681 54.7705 11.5198C54.6092 11.3585 54.5186 11.1399 54.5186 10.9118V3.78451C54.5182 3.23693 54.3006 2.71183 53.9134 2.32455C53.5263 1.93728 53.0014 1.71943 52.4538 1.71874H3.79838C3.2488 1.71734 2.72109 1.93405 2.33117 2.32135C1.94124 2.70865 1.72094 3.23493 1.71863 3.78451V29.5812C1.72048 30.9905 2.28115 32.3415 3.27772 33.3379C4.27429 34.3343 5.62545 34.8948 7.0347 34.8965H44.1253C44.3533 34.8965 44.572 34.9871 44.7333 35.1483C44.8945 35.3095 44.9851 35.5282 44.9851 35.7563C44.9851 35.9843 44.8945 36.203 44.7333 36.3642C44.572 36.5254 44.3533 36.6159 44.1253 36.6159Z" fill="#FF4521"/>
<path d="M40.2816 46.1877H15.9683C15.7403 46.1877 15.5218 46.0972 15.3606 45.936C15.1995 45.7748 15.1089 45.5563 15.1089 45.3284C15.1088 44.2181 15.5051 43.1443 16.2262 42.3002L17.6082 40.6811L17.6004 38.4641C17.5997 38.2363 17.6894 38.0175 17.8498 37.8557C18.0103 37.694 18.2285 37.6025 18.4563 37.6013C18.6835 37.6015 18.9014 37.6916 19.0624 37.852C19.2234 38.0123 19.3144 38.2299 19.3156 38.4572L19.3253 40.9923C19.3257 41.198 19.2525 41.3972 19.1189 41.5536L17.5296 43.4138C17.2674 43.7203 17.071 44.0774 16.9526 44.4629H39.2902C39.1715 44.0773 38.9748 43.7202 38.7123 43.4138L37.123 41.5536C36.9909 41.3983 36.9179 41.2014 36.9168 40.9976L36.9124 38.4624C36.9124 38.2346 37.0026 38.0161 37.1634 37.8548C37.3241 37.6934 37.5423 37.6022 37.7701 37.6013C37.9978 37.6013 38.2162 37.6917 38.3774 37.8526C38.5385 38.0136 38.6291 38.232 38.6293 38.4597L38.6337 40.6794L40.0176 42.3002C40.7387 43.1444 41.1352 44.2181 41.1357 45.3284C41.1357 45.5554 41.0459 45.7732 40.8859 45.9342C40.7259 46.0952 40.5086 46.1864 40.2816 46.1877Z" fill="#FF4521"/>
<path d="M44.1255 31.2371H5.03035C4.91525 31.2408 4.80055 31.2212 4.69313 31.1797C4.58572 31.1382 4.48772 31.0755 4.405 30.9954C4.32229 30.9153 4.25655 30.8194 4.21164 30.7134C4.16672 30.6073 4.14355 30.4933 4.14355 30.3782C4.14355 30.263 4.16672 30.149 4.21164 30.043C4.25655 29.937 4.32229 29.8411 4.405 29.7609C4.48772 29.6808 4.58572 29.6182 4.69313 29.5766C4.80055 29.5351 4.91525 29.5156 5.03035 29.5192H44.1255C44.2406 29.5156 44.3553 29.5351 44.4627 29.5766C44.5701 29.6182 44.6681 29.6808 44.7508 29.7609C44.8335 29.8411 44.8993 29.937 44.9442 30.043C44.9891 30.149 45.0123 30.263 45.0123 30.3782C45.0123 30.4933 44.9891 30.6073 44.9442 30.7134C44.8993 30.8194 44.8335 30.9153 44.7508 30.9954C44.6681 31.0755 44.5701 31.1382 44.4627 31.1797C44.3553 31.2212 44.2406 31.2408 44.1255 31.2371Z" fill="#FF4521"/>
</svg>
